<svg width="31" height="31" viewBox="0 0 31 31" fill="none" xmlns="http://www.w3.org/2000/svg">
<path d="M30.4919 15.5356C30.5104 14.4953 30.4012 13.4566 30.1665 12.4419H15.6695V18.059H24.1782C24.0171 19.0438 23.6544 19.9865 23.112 20.8303C22.5697 21.6741 21.8587 22.4017 21.0221 22.9693L20.9936 23.1574L25.5771 26.6376L25.8949 26.6684C27.4124 25.2308 28.6056 23.4973 29.3974 21.5797C30.1892 19.6621 30.562 17.6031 30.4919 15.5356Z" fill="#4285F4"/>
<path d="M15.9437 30.3339C19.7044 30.4381 23.3629 29.1265 26.1676 26.6685L21.2948 22.9693C19.7146 24.0073 17.8436 24.5364 15.9422 24.4831C13.9899 24.4717 12.0909 23.8581 10.5144 22.7293C8.93791 21.6005 7.76399 20.0139 7.15913 18.1943L6.97771 18.209L2.21135 21.8245L2.14838 21.9949C3.43204 24.5025 5.40203 26.6107 7.83803 28.0836C10.274 29.5565 13.08 30.3362 15.9422 30.3354" fill="#34A853"/>
<path d="M7.16065 18.3308C6.82562 17.3673 6.65392 16.3565 6.65238 15.3385C6.65865 14.3213 6.82659 13.3113 7.15016 12.3448L7.14116 12.1449L2.30433 8.4707L2.1469 8.54419C1.06408 10.6515 0.500061 12.9783 0.500061 15.3378C0.500061 17.6974 1.06408 20.0241 2.1469 22.1314L7.15615 18.3308" fill="#FBBC05"/>
<path d="M15.7864 6.19279C17.9779 6.16132 20.0953 6.96971 21.6878 8.44582L25.9954 4.27485C23.245 1.71014 19.5823 0.298587 15.7864 0.340507C12.9466 0.347013 10.1651 1.13139 7.75584 2.60513C5.34659 4.07886 3.40548 6.1833 2.15155 8.68097L7.08734 12.4816C7.67973 10.6711 8.83849 9.08938 10.3993 7.96062C11.9602 6.83186 13.8439 6.21336 15.7834 6.19279" fill="#EB4335"/>
</svg>
