<?xml version="1.0" encoding="UTF-8"?>
<!--Generator: Apple Native CoreSVG 232.5-->
<!DOCTYPE svg
PUBLIC "-//W3C//DTD SVG 1.1//EN"
       "http://www.w3.org/Graphics/SVG/1.1/DTD/svg11.dtd">
<svg version="1.1" xmlns="http://www.w3.org/2000/svg" xmlns:xlink="http://www.w3.org/1999/xlink" width="26.6808" height="16.7499">
 <g>
  <rect height="16.7499" opacity="0" width="26.6808" x="0" y="0"/>
  <path d="M13.3413 16.7499C21.2313 16.7499 26.6807 10.3684 26.6807 8.38118C26.6807 6.38363 21.2208 0.0124598 13.3413 0.0124598C5.5633 0.0124598-2.22045e-16 6.38363-2.22045e-16 8.38118C-2.22045e-16 10.3684 5.55275 16.7499 13.3413 16.7499ZM13.3413 15.2037C6.91563 15.2037 1.70777 9.75863 1.70777 8.38118C1.70777 7.21901 6.91563 1.5544 13.3413 1.5544C19.7546 1.5544 24.9624 7.21901 24.9624 8.38118C24.9624 9.75863 19.7546 15.2037 13.3413 15.2037ZM13.3413 13.8473C16.3795 13.8473 18.822 11.3572 18.822 8.38118C18.822 5.32213 16.3795 2.91506 13.3413 2.91506C10.2823 2.91506 7.85029 5.32213 7.85029 8.38118C7.85029 11.3572 10.2823 13.8473 13.3413 13.8473ZM13.3435 10.1936C12.3324 10.1936 11.5041 9.36942 11.5041 8.38118C11.5041 7.38049 12.3324 6.55847 13.3435 6.55847C14.3503 6.55847 15.1662 7.38049 15.1662 8.38118C15.1662 9.36942 14.3503 10.1936 13.3435 10.1936Z" fill="#ffffff" fill-opacity="0.85"/>
 </g>
</svg>
