<svg width="294" height="30" viewBox="0 0 294 30" fill="none" xmlns="http://www.w3.org/2000/svg">
<line y1="13.8396" x2="110" y2="13.8396" stroke="black" stroke-width="2"/>
<path d="M130.91 14.9373C130.91 13.3435 131.301 11.8826 132.082 10.5544C132.871 9.21851 133.953 8.16382 135.328 7.39038C136.703 6.61694 138.215 6.23022 139.863 6.23022C141.098 6.23022 142.266 6.46069 143.367 6.92163C144.469 7.37476 145.414 7.98804 146.203 8.76147C147 9.53491 147.629 10.4607 148.09 11.5388C148.551 12.6091 148.781 13.7419 148.781 14.9373C148.781 16.1326 148.551 17.2693 148.09 18.3474C147.629 19.4177 147 20.3435 146.203 21.1248C145.414 21.8982 144.469 22.5154 143.367 22.9763C142.266 23.4294 141.098 23.656 139.863 23.656C138.629 23.656 137.457 23.4294 136.348 22.9763C135.238 22.5154 134.285 21.8982 133.488 21.1248C132.699 20.3435 132.07 19.4177 131.602 18.3474C131.141 17.2693 130.91 16.1326 130.91 14.9373ZM134.215 14.9373C134.215 16.5623 134.762 17.9255 135.855 19.0271C136.949 20.1287 138.285 20.6794 139.863 20.6794C141.441 20.6794 142.77 20.1287 143.848 19.0271C144.934 17.9255 145.477 16.5623 145.477 14.9373C145.477 13.3201 144.934 11.9607 143.848 10.8591C142.762 9.75757 141.434 9.20679 139.863 9.20679C138.285 9.20679 136.949 9.76147 135.855 10.8708C134.762 11.9724 134.215 13.3279 134.215 14.9373ZM154.078 23.3396H150.832V6.53491H157.676C159.105 6.53491 160.312 7.01929 161.297 7.98804C162.289 8.95679 162.785 10.1443 162.785 11.5505C162.785 12.5583 162.5 13.4685 161.93 14.281C161.367 15.0935 160.629 15.6873 159.715 16.0623L163.898 23.3396H160.242L156.434 16.4724H154.078V23.3396ZM157.148 9.37085H154.078V13.7654H157.148C157.859 13.7654 158.434 13.5544 158.871 13.1326C159.309 12.7107 159.527 12.1833 159.527 11.5505C159.527 10.9177 159.309 10.3982 158.871 9.99194C158.434 9.57788 157.859 9.37085 157.148 9.37085Z" fill="black"/>
<line x1="184" y1="13.8396" x2="294" y2="13.8396" stroke="black" stroke-width="2"/>
</svg>
