<svg width="50" height="50" viewBox="0 0 50 50" fill="none" xmlns="http://www.w3.org/2000/svg">
<circle cx="25" cy="25" r="25" fill="#FF0000"/>
<path d="M15 27C15 23.2288 15 21.3431 16.1716 20.1716C17.3431 19 19.2288 19 23 19H27C30.7712 19 32.6569 19 33.8284 20.1716C35 21.3431 35 23.2288 35 27C35 30.7712 35 32.6569 33.8284 33.8284C32.6569 35 30.7712 35 27 35H23C19.2288 35 17.3431 35 16.1716 33.8284C15 32.6569 15 30.7712 15 27Z" stroke="white" stroke-width="1.5"/>
<path d="M29 19C29 17.1144 29 16.1716 28.4142 15.5858C27.8284 15 26.8856 15 25 15C23.1144 15 22.1716 15 21.5858 15.5858C21 16.1716 21 17.1144 21 19" stroke="white" stroke-width="1.5"/>
<path d="M25 30.3333C26.1046 30.3333 27 29.5871 27 28.6667C27 27.7462 26.1046 27 25 27C23.8954 27 23 26.2538 23 25.3333C23 24.4129 23.8954 23.6667 25 23.6667M25 30.3333C23.8954 30.3333 23 29.5871 23 28.6667M25 30.3333V31M25 23V23.6667M25 23.6667C26.1046 23.6667 27 24.4129 27 25.3333" stroke="white" stroke-width="1.5" stroke-linecap="round"/>
</svg>
