<svg width="30" height="32" viewBox="0 0 30 32" fill="none" xmlns="http://www.w3.org/2000/svg">
<path d="M14.5175 8.27808C14.2066 6.53385 15.0078 4.73884 15.9728 3.52915C17.0362 2.19442 18.8612 1.17084 20.4208 1.05835C20.6842 2.88706 19.9592 4.6688 19.0048 5.9291C17.981 7.28303 16.2208 8.33297 14.5175 8.27808ZM23.6654 14.5983C24.148 13.2125 25.104 11.9656 26.5872 11.1243C25.0884 9.1991 22.9841 8.08141 20.9983 8.08141C18.3709 8.08141 17.26 9.36988 15.4351 9.36988C13.5552 9.36988 12.129 8.08141 9.85324 8.08141C7.6216 8.08141 5.24612 9.48149 3.73958 11.8726C3.18565 12.7565 2.81041 13.8545 2.60577 15.0775C2.03792 18.5084 2.88616 22.9771 5.41643 26.9451C6.64669 28.8705 8.28653 31.0392 10.4288 31.0581C12.3371 31.0773 12.8785 29.8022 15.462 29.7891C18.0492 29.7739 18.5396 31.0713 20.4453 31.0526C22.5882 31.034 24.3184 28.6339 25.5486 26.7087C26.4246 25.3272 26.7559 24.6294 27.4371 23.0674C23.9735 21.723 22.5489 17.7944 23.6654 14.5983Z" fill="white"/>
</svg>
